<svg width="118" height="51" viewBox="0 0 118 51" fill="none" xmlns="http://www.w3.org/2000/svg">
<path d="M12.3247 8.04419H0V24.1324H16.4305V8.04419H12.3247ZM12.3247 20.1121H4.1094V12.068H12.3247V20.1121Z" fill="currentColor"/>
<path d="M32.8611 8.04419H20.54V24.1324H36.9705V8.04419H32.8611ZM32.8611 20.1121H24.6459V12.068H32.8611V20.1121Z" fill="currentColor"/>
<path d="M36.9705 0H20.54V4.0238H36.9705V0Z" fill="currentColor"/>
<path d="M53.4043 4.02393H49.2949V16.0918H53.4043V4.02393Z" fill="currentColor"/>
<path d="M45.1854 20.1121V8.04419H41.0796V20.1121V24.1324H45.1854H53.4007V20.1121H45.1854Z" fill="currentColor"/>
<path d="M61.6197 8.04419H57.5103V24.1324H61.6197V8.04419Z" fill="currentColor"/>
<path d="M73.2376 27.4641V21.7779L67.4269 16.0882L73.2376 10.4021V4.7124L70.3323 7.55723L64.5216 13.2434L61.6162 16.0882L64.5216 18.9331L70.3323 24.6227L73.2376 27.4641Z" fill="currentColor"/>
<path fill-rule="evenodd" clip-rule="evenodd" d="M90.7202 44.5296V50.2158L87.8149 47.3744L82.0042 41.6848L79.1021 38.8432V46.8841H74.9927V30.7958H79.1021V38.8368L82.0042 35.9951L87.8149 30.3089L90.7202 27.4641V33.1538L84.9095 38.84L90.7202 44.5296Z" fill="currentColor"/>
<path d="M98.3501 30.7959H94.2407V46.8841H98.3501V30.7959Z" fill="currentColor"/>
<path d="M63.558 42.8638V30.7959H59.4521V42.8638V46.8841H63.558H71.7733V42.8638H63.558Z" fill="currentColor"/>
<path d="M31.874 30.7959H19.5493V46.8841H35.9798V30.7959H31.874ZM31.874 42.8638H23.6587V34.8197H31.874V42.8638Z" fill="currentColor"/>
<path d="M51.8251 30.7959H39.5005V46.8841H55.931V30.7959H51.8251ZM51.8251 42.8638H43.6099V34.8197H51.8251V42.8638Z" fill="currentColor"/>
<path fill-rule="evenodd" clip-rule="evenodd" d="M0 30.7546H16.4305V34.7784H10.2703V46.8463H6.16093V34.7784H0V30.7546Z" fill="currentColor"/>
<path fill-rule="evenodd" clip-rule="evenodd" d="M107.73 30.7993H111.84V30.7994H118V34.8232H111.84V46.8876H107.73V34.8232H101.57V30.7994H107.73V30.7993Z" fill="currentColor"/>
</svg>
