<svg viewBox="0 0 341 130" xmlns="http://www.w3.org/2000/svg">
	<path d="M76.8 114.8H0V38H76.8V114.8ZM19 95.8H57.8V57H19V95.8Z"></path>
	<path d="M172.6 114.8H95.8V38H172.6V114.8ZM114.8 95.8H153.6V57H114.8V95.8Z"></path>
	<path d="M249.4 19H230.4V74.7H249.4V19Z"></path>
	<path d="M287.4 38H268.4V114.8H287.4V38Z"></path>
	<path d="M172.6 0H95.8V19H172.6V0Z"></path>
	<path d="M341 103.1L314.3 76.4L341 49.7V22.8L287.4 76.4L341 130V103.1Z"></path>
	<path d="M210.6 95.8V38H191.6V114.8H249.4V95.8H210.6Z"></path>
</svg>
